<svg xmlns="http://www.w3.org/2000/svg" xmlns:xlink="http://www.w3.org/1999/xlink" preserveAspectRatio="xMidYMid" width="512" height="512" viewBox="0 0 512 512">
  <defs>
    <style>
      .cls-1 {
        fill: #fff;
      }

      .cls-2 {
        fill: #1566e4;
        fill-rule: evenodd;
      }
    </style>
  </defs>
  <rect width="512" height="513" rx="40" ry="40" class="cls-1"/>
  <path d="M200.704,214.157 L373.290,215.094 C373.290,215.094 377.251,242.159 372.352,264.772 C367.402,287.618 358.282,306.013 358.282,306.013 C358.282,306.013 367.418,301.125 376.104,301.326 C387.270,301.586 398.615,306.950 398.615,306.950 L453.955,343.505 C453.955,343.505 485.846,372.093 462.396,404.430 C438.947,436.767 406.119,423.176 406.119,423.176 L343.275,380.998 C343.277,380.994 335.363,373.613 332.019,365.063 C328.776,356.771 330.143,347.255 330.143,347.255 C330.143,347.255 321.447,361.652 294.501,378.186 C253.847,403.130 169.039,418.523 101.280,358.502 C43.514,307.334 45.002,253.524 45.002,253.524 L134.109,253.524 C134.109,253.524 132.496,281.881 156.620,305.076 C188.151,335.392 233.580,323.811 251.354,315.386 C269.896,306.597 282.307,288.204 282.307,288.204 L200.704,288.204 L200.704,214.157 ZM134.109,226.342 L45.002,226.342 C45.002,226.342 45.090,167.437 88.148,122.301 C138.816,69.188 226.324,51.689 286.997,88.558 C342.036,122.003 362.034,170.104 362.034,170.104 C364.236,175.403 358.893,181.569 349.841,182.289 C349.841,182.289 321.399,186.590 296.377,181.351 C272.169,176.283 271.446,170.384 255.809,164.090 C251.027,162.166 187.196,136.461 150.054,188.850 C137.792,206.145 134.109,226.342 134.109,226.342 Z" class="cls-2"/>
</svg>
