<?xml version="1.0" encoding="UTF-8"?>
<svg id="Layer_1" xmlns="http://www.w3.org/2000/svg" version="1.1" viewBox="0 0 780 630">
  <!-- Generator: Adobe Illustrator 30.2.1, SVG Export Plug-In . SVG Version: 2.1.1 Build 1)  -->
  <defs>
    <style>
      .st0, .st1, .st2, .st3, .st4, .st5, .st6, .st7, .st8, .st9, .st10, .st11, .st12, .st13, .st14, .st15, .st16, .st17, .st18, .st19 {
        isolation: isolate;
      }

      .st0, .st2, .st3, .st4, .st5, .st7, .st9, .st12, .st13, .st15, .st17, .st18 {
        font-family: CourierNewPSMT, 'Courier New';
      }

      .st0, .st2, .st5, .st7, .st8, .st9, .st18 {
        font-size: 10px;
      }

      .st0, .st3, .st13, .st17 {
        fill: #9e9e9e;
      }

      .st1, .st5, .st10, .st20 {
        fill: #9c88ff;
      }

      .st1, .st6, .st8, .st11, .st14, .st16, .st19 {
        font-family: CourierNewPS-BoldMT, 'Courier New';
        font-weight: 700;
      }

      .st1, .st6, .st13, .st15, .st16, .st19 {
        font-size: 11px;
      }

      .st2, .st8, .st16 {
        fill: #a0c4ff;
      }

      .st21, .st22, .st23, .st24, .st25, .st26, .st27, .st28, .st29, .st30, .st31, .st32, .st33, .st34 {
        fill: none;
      }

      .st21, .st22, .st24, .st26, .st29, .st30, .st32, .st33 {
        stroke-width: 2px;
      }

      .st21, .st23, .st35, .st36 {
        stroke: #f0c040;
      }

      .st22, .st26, .st32 {
        stroke-dasharray: 6 3;
      }

      .st22, .st29, .st34 {
        stroke: #e09020;
      }

      .st3, .st4 {
        font-size: 9px;
      }

      .st4 {
        fill: #ff0;
      }

      .st23, .st25, .st27, .st36, .st28, .st37, .st34, .st38, .st39 {
        stroke-width: 1.5px;
      }

      .st24, .st40, .st28, .st38 {
        stroke: #6abf69;
      }

      .st25, .st26, .st33 {
        stroke: #e05050;
      }

      .st6, .st7, .st11, .st14, .st15 {
        fill: #e0e0e0;
      }

      .st40, .st38 {
        fill: #1a2a1a;
      }

      .st41, .st9, .st12, .st19 {
        fill: #6abf69;
      }

      .st27 {
        stroke: #ff0;
        stroke-dasharray: 3 2;
      }

      .st42 {
        fill: #ffff80;
      }

      .st35, .st18 {
        fill: #f0c040;
      }

      .st43 {
        fill: #a0a0a0;
      }

      .st36 {
        fill: #2a2a0a;
      }

      .st30, .st32 {
        stroke: #a0a0a0;
      }

      .st10 {
        opacity: .15;
      }

      .st10, .st37, .st20 {
        stroke: #9c88ff;
      }

      .st11 {
        font-size: 13px;
      }

      .st12 {
        font-size: 9.35px;
      }

      .st44 {
        fill: #e05050;
      }

      .st14 {
        font-size: 14px;
      }

      .st31 {
        stroke: #ffff80;
        stroke-width: 1.2px;
      }

      .st45 {
        fill: #e09020;
      }

      .st37 {
        fill: #1a1a3a;
      }

      .st17 {
        font-size: 8.18px;
      }

      .st46 {
        fill: #0d1117;
      }

      .st46, .st39 {
        stroke: #4a90d9;
      }

      .st39 {
        fill: #0d3b66;
      }

      .st47 {
        fill: #1a1a2e;
      }
    </style>
  </defs>
  <rect class="st47" width="780" height="630"/>
  <text class="st14" transform="translate(209.37 28)"><tspan x="0" y="0">Camera Trigger System - Slider Control V2.1</tspan></text>
  <rect class="st39" x="30" y="60" width="140" height="100" rx="6" ry="6"/>
  <text class="st6" transform="translate(60.39 82)"><tspan x="0" y="0">Arduino Mega</tspan></text>
  <text class="st2" transform="translate(88 100)"><tspan x="0" y="0">2560</tspan></text>
  <text class="st7" transform="translate(57.99 125)"><tspan x="0" y="0">Digital Pin 47</tspan></text>
  <text class="st2" transform="translate(66.99 142)"><tspan x="0" y="0">TRIGGER_PIN</tspan></text>
  <line class="st21" x1="170" y1="110" x2="230" y2="110"/>
  <text class="st18" transform="translate(196 105)"><tspan x="0" y="0">Pin 47</tspan></text>
  <rect class="st38" x="230" y="55" width="200" height="210" rx="6" ry="6"/>
  <text class="st19" transform="translate(273.89 75)"><tspan x="0" y="0">4N33 Optoisolator</tspan></text>
  <line class="st21" x1="230" y1="110" x2="280" y2="110"/>
  <text class="st0" transform="translate(245 105)"><tspan x="0" y="0">1</tspan></text>
  <polygon class="st35" points="280 97 280 123 305 110 280 97"/>
  <line class="st21" x1="305" y1="97" x2="305" y2="123"/>
  <line class="st31" x1="310" y1="118" x2="322" y2="106"/>
  <line class="st31" x1="316" y1="122" x2="328" y2="110"/>
  <polygon class="st42" points="322 106 316 108 320 102 322 106"/>
  <polygon class="st42" points="328 110 322 112 326 106 328 110"/>
  <line class="st21" x1="280" y1="123" x2="280" y2="195"/>
  <text class="st0" transform="translate(245 175)"><tspan x="0" y="0">2</tspan></text>
  <line class="st21" x1="230" y1="195" x2="280" y2="195"/>
  <line class="st21" x1="170" y1="195" x2="210" y2="195"/>
  <rect class="st36" x="210" y="185" width="40" height="20" rx="3" ry="3"/>
  <text class="st18" transform="translate(218 198)"><tspan x="0" y="0">390Ω</tspan></text>
  <line class="st21" x1="250" y1="195" x2="280" y2="195"/>
  <text class="st0" transform="translate(195 213)"><tspan x="0" y="0">R1</tspan></text>
  <line class="st21" x1="170" y1="195" x2="170" y2="240"/>
  <line class="st21" x1="150" y1="240" x2="190" y2="240"/>
  <line class="st23" x1="157" y1="248" x2="183" y2="248"/>
  <line class="st23" x1="164" y1="256" x2="176" y2="256"/>
  <text class="st0" transform="translate(161 272)"><tspan x="0" y="0">GND</tspan></text>
  <line class="st24" x1="355" y1="97" x2="355" y2="137"/>
  <line class="st24" x1="355" y1="97" x2="380" y2="97"/>
  <line class="st24" x1="355" y1="137" x2="380" y2="137"/>
  <line class="st24" x1="355" y1="97" x2="370" y2="110"/>
  <line class="st24" x1="355" y1="137" x2="370" y2="124"/>
  <polygon class="st41" points="370 124 360 122 363 132 370 124"/>
  <circle class="st28" cx="362" cy="117" r="22"/>
  <line class="st24" x1="380" y1="97" x2="430" y2="97"/>
  <text class="st0" transform="translate(395 92)"><tspan x="0" y="0">5</tspan></text>
  <line class="st24" x1="380" y1="137" x2="430" y2="137"/>
  <text class="st0" transform="translate(395 153)"><tspan x="0" y="0">4</tspan></text>
  <rect class="st37" x="530" y="60" width="200" height="110" rx="6" ry="6"/>
  <text class="st1" transform="translate(577.19 80)"><tspan x="0" y="0">3.5mm Jack (TRS)</tspan></text>
  <line class="st24" x1="430" y1="97" x2="530" y2="97"/>
  <text class="st9" transform="translate(457 91)"><tspan x="0" y="0">Trigger</tspan></text>
  <line class="st24" x1="530" y1="97" x2="560" y2="97"/>
  <circle class="st20" cx="570" cy="97" r="5"/>
  <text class="st15" transform="translate(585 101)"><tspan x="0" y="0">Tip (R)</tspan></text>
  <text class="st5" transform="translate(585 115)"><tspan x="0" y="0">Camera Shutter</tspan></text>
  <line class="st24" x1="430" y1="137" x2="530" y2="137"/>
  <text class="st0" transform="translate(469 131)"><tspan x="0" y="0">GND</tspan></text>
  <line class="st24" x1="530" y1="137" x2="560" y2="137"/>
  <circle class="st20" cx="570" cy="137" r="5"/>
  <text class="st15" transform="translate(585 141)"><tspan x="0" y="0">Sleeve</tspan></text>
  <text class="st5" transform="translate(585 155)"><tspan x="0" y="0">Camera GND</tspan></text>
  <rect class="st46" x="30" y="300" width="720" height="95" rx="6" ry="6"/>
  <text class="st16" transform="translate(50 322)"><tspan x="0" y="0">Logic / Firmware (triggerCamera):</tspan></text>
  <text class="st13" transform="translate(50 342)"><tspan x="0" y="0">Idle: Pin 47 HIGH --&gt; LED off --&gt; Transistor open --&gt; Shutter open (no trigger)</tspan></text>
  <text class="st13" transform="translate(50 360)"><tspan x="0" y="0">Trigger: Pin 47 LOW --&gt; LED on --&gt; Transistor closes --&gt; Shutter closed (trigger pulse)</tspan></text>
  <text class="st13" transform="translate(50 378)"><tspan x="0" y="0">Pulse duration: camera_trigger_duration = 100ms | Detection: sonar.ping() == 0 at boot</tspan></text>
  <rect class="st40" x="230" y="280" width="310" height="16" rx="3" ry="3"/>
  <text class="st12" transform="translate(233.67 291.97)"><tspan x="0" y="0">camera_attached = true if sonar ping returns 0 at boot</tspan></text>
  <text class="st11" transform="translate(202.77 420)"><tspan x="0" y="0">Cable: 3.5mm TRS (Male) --&gt; Canon N3 (Female)</tspan></text>
  <rect class="st37" x="50" y="435" width="160" height="145" rx="6" ry="6"/>
  <text class="st1" transform="translate(101.59 453)"><tspan x="0" y="0">3.5mm TRS</tspan></text>
  <rect class="st10" x="75" y="462" width="110" height="24" rx="4" ry="4"/>
  <rect class="st10" x="75" y="490" width="110" height="24" rx="4" ry="4"/>
  <rect class="st10" x="75" y="518" width="110" height="24" rx="4" ry="4"/>
  <text class="st15" transform="translate(100 478)"><tspan x="0" y="0">Tip</tspan></text>
  <text class="st15" transform="translate(100 506)"><tspan x="0" y="0">Ring</tspan></text>
  <text class="st15" transform="translate(100 534)"><tspan x="0" y="0">Sleeve</tspan></text>
  <circle class="st44" cx="160" cy="474" r="5"/>
  <circle class="st45" cx="160" cy="502" r="5"/>
  <circle class="st43" cx="160" cy="530" r="5"/>
  <text class="st3" transform="translate(70.59 562)"><tspan x="0" y="0">red / orange / black</tspan></text>
  <line class="st26" x1="215" y1="474" x2="310" y2="474"/>
  <line class="st22" x1="215" y1="502" x2="310" y2="502"/>
  <line class="st32" x1="215" y1="530" x2="310" y2="530"/>
  <line class="st33" x1="310" y1="474" x2="350" y2="474"/>
  <line class="st29" x1="310" y1="502" x2="350" y2="502"/>
  <line class="st27" x1="350" y1="474" x2="350" y2="502"/>
  <text class="st4" transform="translate(355 492)"><tspan x="0" y="0">bridge</tspan></text>
  <line class="st33" x1="350" y1="474" x2="395" y2="474"/>
  <line class="st34" x1="350" y1="502" x2="395" y2="488"/>
  <line class="st25" x1="395" y1="474" x2="395" y2="488"/>
  <line class="st33" x1="395" y1="488" x2="420" y2="488"/>
  <line class="st30" x1="310" y1="530" x2="420" y2="530"/>
  <rect class="st37" x="420" y="435" width="165" height="145" rx="6" ry="6"/>
  <text class="st1" transform="translate(469 453)"><tspan x="0" y="0">Canon N3</tspan></text>
  <rect class="st10" x="445" y="462" width="110" height="24" rx="4" ry="4"/>
  <rect class="st10" x="445" y="490" width="110" height="24" rx="4" ry="4"/>
  <rect class="st10" x="445" y="518" width="110" height="24" rx="4" ry="4"/>
  <circle class="st44" cx="450" cy="474" r="5"/>
  <circle class="st44" cx="450" cy="502" r="5"/>
  <circle class="st43" cx="450" cy="530" r="5"/>
  <text class="st15" transform="translate(462 478)"><tspan x="0" y="0">Tip Shutter</tspan></text>
  <text class="st15" transform="translate(462 506)"><tspan x="0" y="0">Ring Focus (AF)</tspan></text>
  <text class="st15" transform="translate(462 534)"><tspan x="0" y="0">Sleeve GND</tspan></text>
  <text class="st17" transform="translate(430 561.96)"><tspan x="0" y="0">Canon EOS 1D/5D/6D/7D/R-Series</tspan></text>
  <rect class="st46" x="600" y="435" width="155" height="145" rx="6" ry="6"/>
  <text class="st8" transform="translate(646.33 453)"><tspan x="0" y="0">Information</tspan></text>
  <text class="st3" transform="translate(610 472)"><tspan x="0" y="0">Ring + Tip bridged:</tspan></text>
  <text class="st3" transform="translate(610 485)"><tspan x="0" y="0">AF + Shutter simultaneous</tspan></text>
  <text class="st3" transform="translate(610 500)"><tspan x="0" y="0">Just Tip:</tspan></text>
  <text class="st3" transform="translate(610 513)"><tspan x="0" y="0">Shutter without AF</tspan></text>
  <text class="st3" transform="translate(610 530)"><tspan x="0" y="0">N3 = 2.5mm Sub-D</tspan></text>
  <text class="st3" transform="translate(610 543)"><tspan x="0" y="0">3-polig proprietary</tspan></text>
  <text class="st4" transform="translate(610 560)"><tspan x="0" y="0">Cable: Shielded </tspan><tspan x="0" y="10.8">recommended</tspan></text>
  <text/>
</svg>